<svg xmlns="http://www.w3.org/2000/svg" xmlns:xlink="http://www.w3.org/1999/xlink" viewBox="0 0 430 430" width="430" height="430" preserveAspectRatio="xMidYMid meet" style="width: 100%; height: 100%; transform: translate3d(0px, 0px, 0px); content-visibility: visible;"><defs><clipPath id="__lottie_element_16"><rect width="430" height="430" x="0" y="0"/></clipPath><clipPath id="__lottie_element_18"><path d="M0,0 L430,0 L430,430 L0,430z"/></clipPath><clipPath id="__lottie_element_23"><path d="M0,0 L430,0 L430,430 L0,430z"/></clipPath><clipPath id="__lottie_element_309"><path d="M0,0 L430,0 L430,430 L0,430z"/></clipPath><clipPath id="__lottie_element_313"><path d="M0,0 L430,0 L430,430 L0,430z"/></clipPath></defs><g clip-path="url(#__lottie_element_16)"><g clip-path="url(#__lottie_element_309)" transform="matrix(1,0,0,1,0,0)" opacity="1" style="display: block;"><g clip-path="url(#__lottie_element_313)" transform="matrix(1,0,0,1,0,0)" opacity="1" style="display: block;"><g transform="matrix(1,0,0,1,215,326.9750061035156)" opacity="1" style="display: block;"><g opacity="1" transform="matrix(1,0,0,1,-126.65010833740234,0)"><g opacity="1" transform="matrix(1,0,0,1,0,0)"><path stroke-linecap="round" stroke-linejoin="round" fill-opacity="0" class="secondary" stroke="rgb(8,168,138)" stroke-opacity="1" stroke-width="12" d=" M-21.834999084472656,9.840999603271484 C-11.774999618530273,5.554999828338623 -3.8299999237060547,-2.7339999675750732 0,-13.024999618530273 C5.6620001792907715,2.187999963760376 20.315000534057617,13.024999618530273 37.5,13.024999618530273 C54.685001373291016,13.024999618530273 69.33799743652344,2.187999963760376 75,-13.024999618530273 C80.66200256347656,2.187999963760376 95.31500244140625,13.024999618530273 112.5,13.024999618530273 C129.68499755859375,13.024999618530273 144.33799743652344,2.187999963760376 150,-13.024999618530273"/></g><g opacity="1" transform="matrix(1,0,0,1,0,0)"><path stroke-linecap="round" stroke-linejoin="round" fill-opacity="0" class="secondary" stroke="rgb(8,168,138)" stroke-opacity="1" stroke-width="12" d=" M150,-13.079000473022461 C155.66200256347656,2.134000062942505 170.31500244140625,12.970000267028809 187.5,12.970000267028809 C204.68499755859375,12.970000267028809 219.33799743652344,2.134000062942505 225,-13.079000473022461 C230.66200256347656,2.134000062942505 245.31500244140625,12.970000267028809 262.5,12.970000267028809 C266.52398681640625,12.970000267028809 270.4100036621094,12.37600040435791 274.0740051269531,11.270000457763672"/></g></g></g><g transform="matrix(1,0,0,1,214.94700622558594,226.4510040283203)" opacity="1" style="display: block;"><g opacity="1" transform="matrix(1,0,0,1,-126.64946746826172,0)"><g opacity="1" transform="matrix(1,0,0,1,0,0)"><path stroke-linecap="round" stroke-linejoin="round" fill-opacity="0" class="secondary" stroke="rgb(8,168,138)" stroke-opacity="1" stroke-width="12" d=" M12.878000259399414,15.508999824523926 C23.729999542236328,10.21500015258789 31.92300033569336,-1.1979999542236328 36.07500076293945,-12.354999542236328 C40.75609588623047,7.36331844329834 57.86800003051758,18.548999786376953 75.0530014038086,18.548999786376953 C95.01410675048828,18.548999786376953 108.4703369140625,5.661226749420166 112.83609771728516,-9.126827239990234"/></g><g opacity="1" transform="matrix(1,0,0,1,0,0)"><path stroke-linecap="round" stroke-linejoin="round" fill-opacity="0" class="secondary" stroke="rgb(8,168,138)" stroke-opacity="1" stroke-width="12" d=" M243.59100341796875,14.416000366210938 C238.18499755859375,17.209999084472656 232.17999267578125,18.774999618530273 226.01800537109375,18.68400001525879 C208.836181640625,18.43500518798828 194.1804962158203,7.742577075958252 188.51849365234375,-7.470422744750977 C184.45733642578125,4.186181545257568 169.19541931152344,18.514358520507812 153.23565673828125,18.514358520507812 C132.8451690673828,18.514358520507812 120.76461791992188,9.669651985168457 112.82209777832031,-9.0878267288208 C112.82209777832031,-9.0878267288208 112.81609344482422,-9.231826782226562 112.81609344482422,-9.231826782226562"/></g></g></g><g transform="matrix(1,0,0,1,290,141.5)" opacity="1" style="display: block;"><g opacity="1" transform="matrix(1,0,0,1,-126.65010833740234,0.5)"><path stroke-linecap="round" stroke-linejoin="round" fill-opacity="0" class="secondary" stroke="rgb(8,168,138)" stroke-opacity="1" stroke-width="12" d=" M-23.38599967956543,10.46399974822998 C-12.593999862670898,6.39300012588501 -4.025000095367432,-2.2100000381469727 0,-13.024999618530273 C5.6620001792907715,2.187999963760376 20.315000534057617,13.024999618530273 37.5,13.024999618530273 C54.685001373291016,13.024999618530273 69.33799743652344,2.187999963760376 75,-13.024999618530273 C80.66200256347656,2.187999963760376 95.31500244140625,13.024999618530273 112.5,13.024999618530273 C117.46800231933594,13.024999618530273 122.2249984741211,12.119000434875488 126.61399841308594,10.46399974822998"/></g></g><g transform="matrix(1,0,0,1,215,60)" opacity="1" style="display: block;"><g opacity="1" transform="matrix(1,0,0,1,0,0)"><path stroke-linecap="butt" stroke-linejoin="round" fill-opacity="0" class="secondary" stroke="rgb(8,168,138)" stroke-opacity="1" stroke-width="12" d=" M-8.39799690246582,40 C-8.39799690246582,40 -39.947471618652344,6.190999984741211 -39.947471618652344,6.190999984741211 C-49.807437896728516,-4.375999927520752 -49.808414459228516,-21.507999420166016 -39.947471618652344,-32.07500076293945 C-30.087509155273438,-42.641998291015625 -14.098811149597168,-42.641998291015625 -4.238846302032471,-32.07500076293945 C-2.5292506217956543,-30.243000030517578 -1.1166437864303589,-28.214000701904297 0,-26.055999755859375 C1.1166437864303589,-28.214000701904297 2.5292506217956543,-30.243000030517578 4.238846302032471,-32.07500076293945 C14.098811149597168,-42.641998291015625 30.087509155273438,-42.641998291015625 39.947471618652344,-32.07500076293945 C49.807437896728516,-21.507999420166016 49.807437896728516,-4.375999927520752 39.947471618652344,6.190999984741211 C39.947471618652344,6.190999984741211 8.39799690246582,40 8.39799690246582,40"/></g></g><g transform="matrix(1,0,0,1,215,340)" opacity="1" style="display: block;"><g opacity="1" transform="matrix(1,0,0,1,0,0)"><path stroke-linecap="round" stroke-linejoin="round" fill-opacity="0" class="primary" stroke="rgb(18,19,49)" stroke-opacity="1" stroke-width="12" d=" M-130,-60 C-141.04600524902344,-60 -150,-51.04600143432617 -150,-40 C-150,-40 -150,60 -150,60 C-150,60 150,60 150,60 C150,60 150,-40 150,-40 C150,-51.04600143432617 141.04600524902344,-60 130,-60 C130,-60 -130,-60 -130,-60z"/></g></g><g transform="matrix(1,0,0,1,215,235)" opacity="1" style="display: block;"><g opacity="1" transform="matrix(1,0,0,1,0,0)"><path stroke-linecap="round" stroke-linejoin="round" fill-opacity="0" class="primary" stroke="rgb(18,19,49)" stroke-opacity="1" stroke-width="12" d=" M115,45 C115,45 115,-25 115,-25 C115,-36.04600143432617 106.0459976196289,-45 95,-45 C95,-45 -95,-45 -95,-45 C-106.0459976196289,-45 -115,-36.04600143432617 -115,-25 C-115,-25 -115,45 -115,45"/></g></g><g transform="matrix(1,0,0,1,215,145)" opacity="1" style="display: block;"><g opacity="1" transform="matrix(1,0,0,1,0,0)"><path stroke-linecap="round" stroke-linejoin="round" fill-opacity="0" class="primary" stroke="rgb(18,19,49)" stroke-opacity="1" stroke-width="12" d=" M77.5,45 C77.5,45 77.5,-25 77.5,-25 C77.5,-36.04600143432617 68.5459976196289,-45 57.5,-45 C57.5,-45 -57.5,-45 -57.5,-45 C-68.5459976196289,-45 -77.5,-36.04600143432617 -77.5,-25 C-77.5,-25 -77.5,45 -77.5,45"/></g></g></g></g><g clip-path="url(#__lottie_element_18)" transform="matrix(1,0,0,1,0,0)" opacity="1" style="display: none;"><g clip-path="url(#__lottie_element_23)" transform="matrix(1,0,0,1,0,0)" opacity="1" style="display: block;"><g transform="matrix(1,0,0,1,215,326.9750061035156)" opacity="1" style="display: block;"><g opacity="1" transform="matrix(1,0,0,1,-71.9411849975586,0)"><g opacity="1" transform="matrix(1,0,0,1,0,0)"><path stroke-linecap="round" stroke-linejoin="round" fill-opacity="0" class="secondary" stroke="rgb(8,168,138)" stroke-opacity="1" stroke-width="12" d=" M-77.04100036621094,-8.447999954223633 C-76.26899719238281,-9.92199993133545 -75.58599853515625,-11.449999809265137 -75,-13.024999618530273 C-69.33799743652344,2.187999963760376 -54.685001373291016,13.024999618530273 -37.5,13.024999618530273 C-20.315000534057617,13.024999618530273 -5.6620001792907715,2.187999963760376 0,-13.024999618530273 C5.6620001792907715,2.187999963760376 20.315000534057617,13.024999618530273 37.5,13.024999618530273 C54.685001373291016,13.024999618530273 69.33799743652344,2.187999963760376 75,-13.024999618530273 C80.66200256347656,2.187999963760376 95.31500244140625,13.024999618530273 112.5,13.024999618530273 C129.68499755859375,13.024999618530273 144.33799743652344,2.187999963760376 150,-13.024999618530273"/></g><g opacity="1" transform="matrix(1,0,0,1,0,0)"><path stroke-linecap="round" stroke-linejoin="round" fill-opacity="0" class="secondary" stroke="rgb(8,168,138)" stroke-opacity="1" stroke-width="12" d=" M150,-13.079000473022461 C155.66200256347656,2.134000062942505 170.31500244140625,12.970000267028809 187.5,12.970000267028809 C202.50399780273438,12.970000267028809 215.57699584960938,4.710000038146973 222.42300415039062,-7.511000156402588"/></g></g></g><g transform="matrix(1,0,0,1,214.94700622558594,226.4510040283203)" opacity="1" style="display: block;"><g opacity="1" transform="matrix(1,0,0,1,-71.93930053710938,0)"><g opacity="1" transform="matrix(1,0,0,1,0,0)"><path stroke-linecap="round" stroke-linejoin="round" fill-opacity="0" class="secondary" stroke="rgb(8,168,138)" stroke-opacity="1" stroke-width="12" d=" M-41.8129997253418,0.9649999737739563 C-40.03900146484375,-1.6519999504089355 -38.56700134277344,-4.489999771118164 -37.446998596191406,-7.5 C-31.78499984741211,7.7129998207092285 -17.131999969482422,18.548999786376953 0.05299999937415123,18.548999786376953 C17.238000869750977,18.548999786376953 31.05116844177246,4.955162048339844 36.71316909790039,-10.257837295532227 C41.81778335571289,7.514067649841309 57.86800003051758,18.548999786376953 75.0530014038086,18.548999786376953 C95.50872039794922,18.548999786376953 110.61965942382812,4.166985988616943 113.7477798461914,-13.184489250183105"/></g><g opacity="1" transform="matrix(1,0,0,1,0,0)"><path stroke-linecap="round" stroke-linejoin="round" fill-opacity="0" class="secondary" stroke="rgb(8,168,138)" stroke-opacity="1" stroke-width="12" d=" M187.27000427246094,-1.4980000257492065 C180.75599670410156,9.317999839782715 167.87100219726562,18.496000289916992 153.91900634765625,18.496000289916992 C133.23684692382812,18.496458053588867 118.91747283935547,6.43782901763916 113.73377990722656,-13.145489692687988 C113.73377990722656,-13.145489692687988 113.72777557373047,-13.28948974609375 113.72777557373047,-13.28948974609375"/></g></g></g><g transform="matrix(1,0,0,1,290,141.5)" opacity="1" style="display: block;"><g opacity="1" transform="matrix(1,0,0,1,-71.9411849975586,0.5)"><path stroke-linecap="round" stroke-linejoin="round" fill-opacity="0" class="secondary" stroke="rgb(8,168,138)" stroke-opacity="1" stroke-width="12" d=" M-77.27799987792969,-8.001999855041504 C-76.40799713134766,-9.61299991607666 -75.64600372314453,-11.289999961853027 -75,-13.024999618530273 C-69.33799743652344,2.187999963760376 -54.685001373291016,13.024999618530273 -37.5,13.024999618530273 C-20.315000534057617,13.024999618530273 -5.6620001792907715,2.187999963760376 0,-13.024999618530273 C5.6620001792907715,2.187999963760376 20.315000534057617,13.024999618530273 37.5,13.024999618530273 C52.72600173950195,13.024999618530273 65.96399688720703,4.51800012588501 72.72200012207031,-8.001999855041504"/></g></g><g transform="matrix(1,0,0,1,215,60)" opacity="1" style="display: block;"><g opacity="1" transform="matrix(1,0,0,1,0,0)"><path stroke-linecap="butt" stroke-linejoin="round" fill-opacity="0" class="secondary" stroke="rgb(8,168,138)" stroke-opacity="1" stroke-width="12" d=" M-2.3461458683013916,40 C-2.3461458683013916,40 -11.161057472229004,6.190999984741211 -11.161057472229004,6.190999984741211 C-13.915681838989258,-4.375999927520752 -13.916314125061035,-21.507999420166016 -11.161057472229004,-32.07500076293945 C-8.406434059143066,-42.641998291015625 -3.938859462738037,-42.641998291015625 -1.1842360496520996,-32.07500076293945 C-0.7063876986503601,-30.243000030517578 -0.31209805607795715,-28.214000701904297 0,-26.055999755859375 C0.31209805607795715,-28.214000701904297 0.7063876986503601,-30.243000030517578 1.1842360496520996,-32.07500076293945 C3.938859462738037,-42.641998291015625 8.406434059143066,-42.641998291015625 11.161057472229004,-32.07500076293945 C13.915681838989258,-21.507999420166016 13.915681838989258,-4.375999927520752 11.161057472229004,6.190999984741211 C11.161057472229004,6.190999984741211 2.3461458683013916,40 2.3461458683013916,40"/></g></g><g transform="matrix(1,0,0,1,215,340)" opacity="1" style="display: block;"><g opacity="1" transform="matrix(1,0,0,1,0,0)"><path stroke-linecap="round" stroke-linejoin="round" fill-opacity="0" class="primary" stroke="rgb(18,19,49)" stroke-opacity="1" stroke-width="12" d=" M-130,-60 C-141.04600524902344,-60 -150,-51.04600143432617 -150,-40 C-150,-40 -150,60 -150,60 C-150,60 150,60 150,60 C150,60 150,-40 150,-40 C150,-51.04600143432617 141.04600524902344,-60 130,-60 C130,-60 -130,-60 -130,-60z"/></g></g><g transform="matrix(1,0,0,1,215,235)" opacity="1" style="display: block;"><g opacity="1" transform="matrix(1,0,0,1,0,0)"><path stroke-linecap="round" stroke-linejoin="round" fill-opacity="0" class="primary" stroke="rgb(18,19,49)" stroke-opacity="1" stroke-width="12" d=" M115,45 C115,45 115,-25 115,-25 C115,-36.04600143432617 106.0459976196289,-45 95,-45 C95,-45 -95,-45 -95,-45 C-106.0459976196289,-45 -115,-36.04600143432617 -115,-25 C-115,-25 -115,45 -115,45"/></g></g><g transform="matrix(1,0,0,1,215,145)" opacity="1" style="display: block;"><g opacity="1" transform="matrix(1,0,0,1,0,0)"><path stroke-linecap="round" stroke-linejoin="round" fill-opacity="0" class="primary" stroke="rgb(18,19,49)" stroke-opacity="1" stroke-width="12" d=" M77.5,45 C77.5,45 77.5,-25 77.5,-25 C77.5,-36.04600143432617 68.5459976196289,-45 57.5,-45 C57.5,-45 -57.5,-45 -57.5,-45 C-68.5459976196289,-45 -77.5,-36.04600143432617 -77.5,-25 C-77.5,-25 -77.5,45 -77.5,45"/></g></g></g></g></g></svg>